<?xml version='1.0' encoding='iso-8859-1'?>
<svg version="1.1" xmlns="http://www.w3.org/2000/svg" viewBox="0 0 463 463" xmlns:xlink="http://www.w3.org/1999/xlink" enable-background="new 0 0 463 463">
  <path d="m433.233,196.792c-4.142,0-7.5,3.358-7.5,7.5s3.358,7.5 7.5,7.5c8.043,0 14.593,7.349 14.752,16.446-1.646,13.784-9.308,15.679-11.847,16.304-19.447,4.783-56.402-17.214-74.604-44.421-16.181-24.186-36.19-40.004-57.866-45.743-18.24-4.829-37.379-2.237-52.509,7.112-8.183,5.057-14.928,12.807-19.659,22.099-4.731-9.291-11.476-17.042-19.659-22.099-15.13-9.35-34.271-11.942-52.509-7.112-21.675,5.739-41.685,21.557-57.866,45.743-18.203,27.206-55.163,49.206-74.604,44.421-2.539-0.625-10.201-2.52-11.847-16.304 0.159-9.098 6.709-16.446 14.752-16.446 4.142,0 7.5-3.358 7.5-7.5s-3.358-7.5-7.5-7.5c-16.414,0-29.767,14.257-29.767,31.781 0,30.369 17.484,56.113 47.971,70.63 15.557,7.408 34.912,11.798 56.09,11.798 34.216,0 73.189-11.463 108.565-40.185 8.058-6.542 14.417-14.495 18.874-23.364 4.457,8.869 10.816,16.821 18.874,23.364 35.379,28.725 74.346,40.185 108.565,40.185 21.175,0 40.536-4.392 56.09-11.798 30.487-14.517 47.971-40.261 47.971-70.63 0-17.524-13.353-31.781-29.767-31.781zm-409.605,62.401c12.944,3.036 29.934-1.05 47.896-11.537 16.882-9.857 32.34-24.143 42.409-39.193 14.12-21.105 31.146-34.793 49.239-39.583 14.277-3.779 29.142-1.822 40.785,5.373 3.662,2.263 6.932,5.316 9.724,8.948-3.029-1.472-6.266-2.627-9.688-3.409-22.36-5.108-45.515,6.68-58.989,30.034-16.948,29.375-31.348,51.68-46.539,65.05-15.733,13.848-30.549,16.52-48.033,8.667-0.189-0.085-0.381-0.155-0.573-0.223-11.405-6.264-20.289-14.502-26.231-24.127zm71.347,36.573c4.512-2.538 8.975-5.737 13.4-9.631 16.727-14.722 31.934-38.157 49.621-68.814 12.273-21.271 30.08-25.78 42.655-22.907 6.766,1.546 12.396,5.149 16.451,10.234-10.928-2.365-22.426,2.361-31.371,13.134-6.513,7.842-10.734,19.469-15.203,31.778-6.314,17.391-12.843,35.374-25.008,40.229-0.311,0.124-0.604,0.273-0.889,0.432-17.269,4.994-34.169,6.6-49.656,5.545zm108.196-36.595c-9.097,7.386-18.436,13.526-27.847,18.543 3.618-7.387 6.535-15.408 9.304-23.036 4.01-11.047 7.799-21.482 12.642-27.314 5.77-6.946 12.403-9.729 18.204-7.636 3.302,1.192 5.94,3.853 7.366,7.132-2.562,12.6-9.342,23.927-19.669,32.311zm36.99-32.311c1.425-3.28 4.064-5.94 7.366-7.132 5.801-2.093 12.435,0.69 18.204,7.636 4.843,5.833 8.632,16.267 12.642,27.314 2.769,7.627 5.686,15.649 9.304,23.036-9.412-5.017-18.75-11.157-27.847-18.543-10.328-8.384-17.108-19.711-19.669-32.311zm78.207,63.361c-0.284-0.159-0.577-0.308-0.888-0.432-12.166-4.855-18.694-22.838-25.008-40.229-4.469-12.31-8.69-23.937-15.203-31.778-8.946-10.773-20.445-15.497-31.372-13.133 4.055-5.085 9.685-8.688 16.451-10.234 12.575-2.875 30.382,1.635 42.654,22.907 17.688,30.657 32.895,54.092 49.622,68.814 4.425,3.894 8.887,7.093 13.399,9.631-15.486,1.053-32.386-0.552-49.655-5.546zm94.773-6.901c-0.192,0.068-0.384,0.138-0.573,0.223-17.487,7.854-32.3,5.18-48.033-8.667-15.191-13.371-29.591-35.675-46.539-65.05-13.474-23.354-36.627-35.146-58.989-30.034-3.422,0.782-6.658,1.937-9.688,3.409 2.793-3.631 6.063-6.685 9.724-8.948 7.751-4.79 16.93-7.259 26.413-7.259 4.761,0 9.6,0.623 14.372,1.886 18.092,4.791 35.119,18.479 49.239,39.583 10.069,15.05 25.526,29.335 42.409,39.193 17.962,10.486 34.951,14.575 47.896,11.537-5.942,9.625-14.825,17.863-26.231,24.127z"/>
</svg>
